<svg xmlns="http://www.w3.org/2000/svg" viewBox="0 0 203.41 43.54"><defs><style>.cls-1{fill:#221e1f;}</style></defs><title>자산 1</title><g id="레이어_2" data-name="레이어 2"><g id="Layer_1" data-name="Layer 1"><path class="cls-1" d="M148.48,34.13c0,3.59-1.68,5.56-4.72,5.56-3.9,0-4.72-3-4.72-5.56V22.45H135V34.36c0,5.58,3.45,9.18,8.78,9.18s8.78-3.6,8.78-9.18V22.45h-4.06Z"/><polygon class="cls-1" points="60.86 26.14 60.88 26.14 60.88 22.45 44.64 22.45 44.64 26.14 44.65 26.14 44.65 26.15 50.73 26.15 50.73 43.2 54.78 43.2 54.78 26.15 60.86 26.15 60.86 26.14"/><path class="cls-1" d="M34.83,22.11A10.42,10.42,0,0,0,24.25,32.82a10.58,10.58,0,1,0,21.15,0A10.41,10.41,0,0,0,34.83,22.11m0,17.58c-3.8,0-6.44-2.82-6.44-6.87S31,26,34.83,26s6.44,2.82,6.44,6.86-2.65,6.87-6.44,6.87"/><polygon class="cls-1" points="17.88 22.47 17.88 22.47 11.23 37.54 4.59 22.47 4.59 22.47 4.58 22.45 0 22.45 0 43.2 4.04 43.2 4.04 30.48 9.57 43.2 12.9 43.2 18.42 30.48 18.42 43.2 22.46 43.2 22.46 22.45 17.89 22.45 17.88 22.47"/><path class="cls-1" d="M70.55,22.11A10.41,10.41,0,0,0,60,32.82a10.58,10.58,0,1,0,21.15,0A10.42,10.42,0,0,0,70.55,22.11m0,17.58c-3.79,0-6.44-2.82-6.44-6.87S66.76,26,70.55,26,77,28.78,77,32.82s-2.64,6.87-6.44,6.87"/><path class="cls-1" d="M192.83,22.11a10.41,10.41,0,0,0-10.57,10.71,10.58,10.58,0,1,0,21.15,0,10.42,10.42,0,0,0-10.58-10.71m0,17.58c-3.79,0-6.44-2.82-6.44-6.87S189,26,192.83,26s6.44,2.82,6.44,6.86-2.64,6.87-6.44,6.87"/><polygon class="cls-1" points="117.21 26.14 117.23 26.14 117.23 26.15 123.31 26.15 123.31 43.2 127.36 43.2 127.36 26.15 133.44 26.15 133.44 26.14 133.45 26.14 133.45 22.45 117.21 22.45 117.21 26.14"/><path class="cls-1" d="M110,30.48,108,30.19a4.22,4.22,0,0,1-1.83-.67,1.7,1.7,0,0,1-.73-1.42c0-1.07,1.15-2.14,3.34-2.14a5.23,5.23,0,0,1,4.32,2.17l.45.61.27-.25,2.6-2.38-.32-.48a8.64,8.64,0,0,0-7.29-3.52,8.27,8.27,0,0,0-5.49,1.81,5.64,5.64,0,0,0-2,4.34c0,3.08,2.28,5.26,6.1,5.86l1.9.29a5.51,5.51,0,0,1,2.47.86,1.91,1.91,0,0,1,.82,1.6c0,1.71-1.53,2.82-3.92,2.82A6.4,6.4,0,0,1,103,36.33l-.42-.71h0l-3,2.61.3.48a9.84,9.84,0,0,0,8.76,4.83c4.78,0,8.11-2.79,8.11-6.78,0-3.38-2.42-5.61-6.81-6.28"/><path class="cls-1" d="M163.68,22.45h-8.24V43.2h8.24C170,43.2,174,39.13,174,32.83S170,22.45,163.68,22.45m-.17,17h-4V26.18h4c4,0,6.34,2.42,6.34,6.65s-2.31,6.64-6.34,6.64"/><path class="cls-1" d="M98.72,28.69c0-3.79-2.84-6.24-7.23-6.24h-9V43.2H86.6V34.93h3.32l6.63,8.27h5.06l-7.13-8.73a5.78,5.78,0,0,0,4.24-5.78m-6,2.39a5.74,5.74,0,0,1-1.45.16H86.6V26.15h4.61c2.22,0,3.3.83,3.3,2.55a2.22,2.22,0,0,1-1.84,2.38"/><rect class="cls-1" x="175.98" y="22.45" width="4.31" height="20.75"/><path class="cls-1" d="M104.21,20.75v0l1.89-4.66h8.66l1.93,4.68H121L112.45,0h-4l-8.6,20.75Zm6.25-15.29,2.82,6.92h-5.65Z"/><polygon class="cls-1" points="65.08 20.75 65.08 7.01 76.09 20.67 76.16 20.75 79.53 20.75 79.53 0 75.47 0 75.47 13.74 64.47 0.08 64.4 0 61.03 0 61.03 20.75 65.08 20.75"/><rect class="cls-1" x="121.58" width="4.31" height="20.75"/><path class="cls-1" d="M101.1,10.38C101.1,4.07,97,0,90.76,0H82.52V20.75h8.24c6.28,0,10.34-4.07,10.34-10.37M86.57,17V3.73h4c4,0,6.34,2.42,6.34,6.65S94.62,17,90.59,17Z"/><polygon class="cls-1" points="4.05 20.75 4.05 12.13 14.04 12.13 14.04 20.75 18.1 20.75 18.1 0 14.05 0 14.05 0.02 14.04 0.02 14.04 8.44 4.05 8.44 4.05 0.02 4.05 0.02 4.05 0 0 0 0 20.75 4.05 20.75"/><polygon class="cls-1" points="27.41 11.98 27.41 20.75 31.5 20.75 31.5 11.95 39.09 1.02 39.77 0 35.02 0 31.14 5.54 29.45 7.94 27.52 5.18 23.91 0 19.17 0 19.84 1.02 27.41 11.98"/><path class="cls-1" d="M49.35,21.09c5.33,0,8.78-3.6,8.78-9.18V0H54.07V11.68c0,3.59-1.67,5.56-4.72,5.56-3.9,0-4.72-3-4.72-5.56V0H40.57V11.91c0,5.58,3.45,9.18,8.78,9.18"/></g></g></svg>